name C:/MyDriveSym/Projects/mobilecap/Data\Session20210827_0001\mocap\ForceDataProcessed\DJAsym3_forces.mot
datacolumns 28
datarows 10
range 1.55450000 1.55900000
endheader 
time	R_ground_force_vx	R_ground_force_vy	R_ground_force_vz	R_ground_force_px	R_ground_force_py	R_ground_force_pz	R_ground_torque_x	R_ground_torque_y	R_ground_torque_z	L_ground_force_vx	L_ground_force_vy	L_ground_force_vz	L_ground_force_px	L_ground_force_py	L_ground_force_pz	L_ground_torque_x	L_ground_torque_y	L_ground_torque_z	3_ground_force_vx	3_ground_force_vy	3_ground_force_vz	3_ground_force_px	3_ground_force_py	3_ground_force_pz	3_ground_torque_x	3_ground_torque_y	3_ground_torque_z	
          1.55450000	       -240.21178700	        868.51146400	        -75.80286300	         -0.18231600	          0.00600000	         -0.47723700	          0.00000000	         -5.71378400	          0.00000000	       -140.20273300	        531.34114500	        -20.97968700	         -0.16983300	          0.00600000	         -0.75647100	          0.00000000	          8.06820300	          0.00000000	          0.00000000	          0.00000000	          0.00000000	          0.00000000	          0.00000000	          0.00000000	          0.00000000	          0.00000000	          0.00000000	
          1.55500000	       -239.82773300	        869.43755500	        -75.47941300	         -0.18224600	          0.00600000	         -0.47725200	          0.00000000	         -5.71586400	          0.00000000	       -138.69321500	        536.28311400	        -20.16376900	         -0.17038200	          0.00600000	         -0.75649000	          0.00000000	          8.10099500	          0.00000000	          0.00000000	          0.00000000	          0.00000000	          0.00000000	          0.00000000	          0.00000000	          0.00000000	          0.00000000	          0.00000000	
          1.55550000	       -239.33906000	        870.39191900	        -75.16910500	         -0.18219000	          0.00600000	         -0.47726600	          0.00000000	         -5.71877600	          0.00000000	       -137.08114000	        541.17312600	        -19.28471900	         -0.17092400	          0.00600000	         -0.75651500	          0.00000000	          8.12771100	          0.00000000	          0.00000000	          0.00000000	          0.00000000	          0.00000000	          0.00000000	          0.00000000	          0.00000000	          0.00000000	          0.00000000	
          1.55600000	       -238.74493200	        871.37141000	        -74.87011400	         -0.18214600	          0.00600000	         -0.47728000	          0.00000000	         -5.72259600	          0.00000000	       -135.37602100	        546.00163800	        -18.34173700	         -0.17145800	          0.00600000	         -0.75654600	          0.00000000	          8.14829900	          0.00000000	          0.00000000	          0.00000000	          0.00000000	          0.00000000	          0.00000000	          0.00000000	          0.00000000	          0.00000000	          0.00000000	
          1.55650000	       -238.04517300	        872.37283400	        -74.58035400	         -0.18211500	          0.00600000	         -0.47729400	          0.00000000	         -5.72739900	          0.00000000	       -133.58819100	        550.75890700	        -17.33387300	         -0.17198000	          0.00600000	         -0.75658300	          0.00000000	          8.16268400	          0.00000000	          0.00000000	          0.00000000	          0.00000000	          0.00000000	          0.00000000	          0.00000000	          0.00000000	          0.00000000	          0.00000000	
          1.55700000	       -237.24018900	        873.39296900	        -74.29749000	         -0.18209700	          0.00600000	         -0.47730800	          0.00000000	         -5.73327300	          0.00000000	       -131.72867200	        555.43511600	        -16.26008500	         -0.17249100	          0.00600000	         -0.75662600	          0.00000000	          8.17079700	          0.00000000	          0.00000000	          0.00000000	          0.00000000	          0.00000000	          0.00000000	          0.00000000	          0.00000000	          0.00000000	          0.00000000	
          1.55750000	       -236.33090000	        874.42859300	        -74.01898800	         -0.18209000	          0.00600000	         -0.47732200	          0.00000000	         -5.74031100	          0.00000000	       -129.80906200	        560.02049500	        -15.11934600	         -0.17298800	          0.00600000	         -0.75667400	          0.00000000	          8.17258800	          0.00000000	          0.00000000	          0.00000000	          0.00000000	          0.00000000	          0.00000000	          0.00000000	          0.00000000	          0.00000000	          0.00000000	
          1.55800000	       -235.31866800	        875.47651100	        -73.74218600	         -0.18209500	          0.00600000	         -0.47733700	          0.00000000	         -5.74860900	          0.00000000	       -127.84141800	        564.50541600	        -13.91080000	         -0.17346900	          0.00600000	         -0.75672900	          0.00000000	          8.16805100	          0.00000000	          0.00000000	          0.00000000	          0.00000000	          0.00000000	          0.00000000	          0.00000000	          0.00000000	          0.00000000	          0.00000000	
          1.55850000	       -234.20524500	        876.53359800	        -73.46436000	         -0.18211100	          0.00600000	         -0.47735200	          0.00000000	         -5.75826700	          0.00000000	       -125.83815200	        568.88044500	        -12.63393400	         -0.17393400	          0.00600000	         -0.75678900	          0.00000000	          8.15722500	          0.00000000	          0.00000000	          0.00000000	          0.00000000	          0.00000000	          0.00000000	          0.00000000	          0.00000000	          0.00000000	          0.00000000	
          1.55900000	       -232.99272500	        877.59681600	        -73.18276200	         -0.18213900	          0.00600000	         -0.47736700	          0.00000000	         -5.76938900	          0.00000000	       -123.81190100	        573.13637800	        -11.28873400	         -0.17437900	          0.00600000	         -0.75685400	          0.00000000	          8.14018300	          0.00000000	          0.00000000	          0.00000000	          0.00000000	          0.00000000	          0.00000000	          0.00000000	          0.00000000	          0.00000000	          0.00000000	
